<svg version="1.1" xmlns="http://www.w3.org/2000/svg" viewBox="0 0 401 329.40625" width="401" height="329.40625">
  <!-- svg-source:excalidraw -->
  
  <defs>
    <style class="style-fonts">
      @font-face {
        font-family: "Virgil";
        src: url("https://file%2B.vscode-resource.vscode-cdn.net/Users/adithya/.vscode/extensions/pomdtr.excalidraw-editor-3.5.1/public//dist/excalidraw-assets/Virgil.woff2");
      }
      @font-face {
        font-family: "Cascadia";
        src: url("https://file%2B.vscode-resource.vscode-cdn.net/Users/adithya/.vscode/extensions/pomdtr.excalidraw-editor-3.5.1/public//dist/excalidraw-assets/Cascadia.woff2");
      }
    </style>
  </defs>
  <rect x="0" y="0" width="401" height="329.40625" fill="#ffffff"></rect><g stroke-linecap="round" transform="translate(10 10) rotate(0 190.5 25)"><path d="M0.96 -0.21 C150.93 -2.45, 303.85 -1.13, 380.46 -0.36 M0.25 -0.24 C147.09 1.62, 294.01 0.79, 381.16 0.51 M379.34 -0.75 C382.08 12.6, 379.05 27.92, 381.27 48.77 M380.6 0.63 C381.29 11.18, 381.48 21.83, 380.6 50.2 M381.71 48.93 C258.44 51.15, 137.84 52.6, -0.72 49.73 M381.45 50.17 C283.48 48.9, 185.67 48.24, 0.4 49.82 M0.07 48.34 C0.51 38.17, -0.51 26.73, -0.36 -1.24 M-0.78 49.81 C-0.47 31.01, -0.28 11.14, -0.29 0.58" stroke="#000000" stroke-width="1" fill="none"></path></g><g transform="translate(165.34375 23) rotate(0 35.15625 12)"><text x="35.15625" y="0" font-family="Cascadia, Segoe UI Emoji" font-size="20px" fill="#000000" text-anchor="middle" style="white-space: pre;" direction="ltr" dominant-baseline="text-before-edge">system</text></g><g stroke-linecap="round" transform="translate(10 182.9453125) rotate(0 132.634765625 24.99609375)"><path d="M1.27 -0.27 C104.47 -2.64, 211.57 -0.89, 264.56 -0.47 M0.33 -0.32 C102.56 1.73, 204.88 0.64, 265.49 0.67 M263.61 -0.75 C266.35 12.6, 263.32 27.92, 265.54 48.77 M264.87 0.63 C265.56 11.17, 265.75 21.82, 264.87 50.2 M266.2 48.58 C179.27 50.91, 95.87 52.83, -0.95 49.64 M265.86 50.22 C197.35 49.2, 129.05 48.33, 0.53 49.76 M0.07 48.33 C0.51 38.17, -0.51 26.72, -0.36 -1.24 M-0.78 49.8 C-0.47 31.01, -0.28 11.14, -0.29 0.58" stroke="#000000" stroke-width="1" fill="none"></path></g><g transform="translate(89.900390625 195.94140625) rotate(0 52.734375 12)"><text x="52.734375" y="0" font-family="Cascadia, Segoe UI Emoji" font-size="20px" fill="#000000" text-anchor="middle" style="white-space: pre;" direction="ltr" dominant-baseline="text-before-edge">assistant</text></g><g stroke-linecap="round" transform="translate(125.73046875 96.4765625) rotate(0 132.634765625 24.99609375)"><path d="M1.27 -0.27 C104.47 -2.64, 211.57 -0.89, 264.56 -0.47 M0.33 -0.32 C102.56 1.73, 204.88 0.64, 265.49 0.67 M263.61 -0.75 C266.35 12.6, 263.32 27.92, 265.54 48.77 M264.87 0.63 C265.56 11.17, 265.75 21.82, 264.87 50.2 M266.2 48.58 C179.27 50.91, 95.87 52.83, -0.95 49.64 M265.86 50.22 C197.35 49.2, 129.05 48.33, 0.53 49.76 M0.07 48.33 C0.51 38.17, -0.51 26.72, -0.36 -1.24 M-0.78 49.8 C-0.47 31.01, -0.28 11.14, -0.29 0.58" stroke="#000000" stroke-width="1" fill="none"></path></g><g transform="translate(234.927734375 109.47265625) rotate(0 23.4375 12)"><text x="23.4375" y="0" font-family="Cascadia, Segoe UI Emoji" font-size="20px" fill="#000000" text-anchor="middle" style="white-space: pre;" direction="ltr" dominant-baseline="text-before-edge">user</text></g><g stroke-linecap="round" transform="translate(125.73046875 269.4140625) rotate(0 132.634765625 24.99609375)"><path d="M1.27 -0.27 C104.47 -2.64, 211.57 -0.89, 264.56 -0.47 M0.33 -0.32 C102.56 1.73, 204.88 0.64, 265.49 0.67 M263.61 -0.75 C266.35 12.6, 263.32 27.92, 265.54 48.77 M264.87 0.63 C265.56 11.17, 265.75 21.82, 264.87 50.2 M266.2 48.58 C179.27 50.91, 95.87 52.83, -0.95 49.64 M265.86 50.22 C197.35 49.2, 129.05 48.33, 0.53 49.76 M0.07 48.33 C0.51 38.17, -0.51 26.72, -0.36 -1.24 M-0.78 49.8 C-0.47 31.01, -0.28 11.14, -0.29 0.58" stroke="#000000" stroke-width="1" fill="none"></path></g><g transform="translate(234.927734375 282.41015625) rotate(0 23.4375 12)"><text x="23.4375" y="0" font-family="Cascadia, Segoe UI Emoji" font-size="20px" fill="#000000" text-anchor="middle" style="white-space: pre;" direction="ltr" dominant-baseline="text-before-edge">user</text></g></svg>