<svg version="1.1" xmlns="http://www.w3.org/2000/svg" viewBox="0 0 457.46875 626.7928196581581" width="457.46875" height="626.7928196581581">
  <!-- svg-source:excalidraw -->
  
  <defs>
    <style class="style-fonts">
      @font-face {
        font-family: "Virgil";
        src: url("https://file%2B.vscode-resource.vscode-cdn.net/Users/adithya/.vscode/extensions/pomdtr.excalidraw-editor-3.5.1/public//dist/excalidraw-assets/Virgil.woff2");
      }
      @font-face {
        font-family: "Cascadia";
        src: url("https://file%2B.vscode-resource.vscode-cdn.net/Users/adithya/.vscode/extensions/pomdtr.excalidraw-editor-3.5.1/public//dist/excalidraw-assets/Cascadia.woff2");
      }
    </style>
  </defs>
  <rect x="0" y="0" width="457.46875" height="626.7928196581581" fill="#ffffff"></rect><g stroke-linecap="round" transform="translate(10 75.513671875) rotate(0 92.5 24.5)"><path d="M-1.97 1.86 C47.9 1.58, 94.8 1.42, 186.51 -1.66 M0.83 -0.97 C49.93 -0.54, 98.13 -1.28, 185.62 -0.75 M183.54 1.41 C185.66 11.24, 183.95 26.91, 184.72 48.84 M184.75 -0.13 C185.15 10.04, 183.97 22.22, 184.67 48.03 M186.79 48.85 C114.71 50.17, 43.86 50.44, -0.88 49.12 M184.1 48.29 C129.32 48.5, 74.37 49.14, -0.8 49.83 M-0.97 47.64 C0.92 33.5, -0.2 19.3, 1.7 -1.02 M0.29 48.62 C-0.32 34.74, -0.98 20.55, 0 -0.7" stroke="#000000" stroke-width="1" fill="none"></path></g><g transform="translate(55.625 88.013671875) rotate(0 46.875 12)"><text x="46.875" y="0" font-family="Cascadia, Segoe UI Emoji" font-size="20px" fill="#000000" text-anchor="middle" style="white-space: pre;" direction="ltr" dominant-baseline="text-before-edge">prompt_2</text></g><g stroke-linecap="round" transform="translate(10 160.58203125) rotate(0 92.5 24.5)"><path d="M-1.97 1.86 C47.9 1.58, 94.8 1.42, 186.51 -1.66 M0.83 -0.97 C49.93 -0.54, 98.13 -1.28, 185.62 -0.75 M183.54 1.41 C185.66 11.24, 183.95 26.91, 184.72 48.84 M184.75 -0.13 C185.15 10.04, 183.97 22.22, 184.67 48.03 M186.79 48.85 C114.71 50.17, 43.86 50.44, -0.88 49.12 M184.1 48.29 C129.32 48.5, 74.37 49.14, -0.8 49.83 M-0.97 47.64 C0.92 33.5, -0.2 19.3, 1.7 -1.02 M0.29 48.62 C-0.32 34.74, -0.98 20.55, 0 -0.7" stroke="#000000" stroke-width="1" fill="none"></path></g><g transform="translate(55.625 173.08203125) rotate(0 46.875 12)"><text x="46.875" y="0" font-family="Cascadia, Segoe UI Emoji" font-size="20px" fill="#000000" text-anchor="middle" style="white-space: pre;" direction="ltr" dominant-baseline="text-before-edge">prompt_3</text></g><g stroke-linecap="round"><g transform="translate(99.923828125 127.25) rotate(0 -0.18201022417866852 16.406007701531053)"><path d="M0.42 -0.99 C0.94 8.68, 1.53 17.59, -1.22 33.8 M0.47 0.32 C-0.14 6.87, -0.96 15.37, -0.09 32.25" stroke="#000000" stroke-width="1" fill="none"></path></g><g transform="translate(99.923828125 127.25) rotate(0 -0.18201022417866852 16.406007701531053)"><path d="M-5.68 16.52 C-3.56 21.01, -1.31 24.92, -1.07 33.58 M-5.64 17.57 C-4.6 20.27, -3.83 24.48, -0.16 32.33" stroke="#000000" stroke-width="1" fill="none"></path></g><g transform="translate(99.923828125 127.25) rotate(0 -0.18201022417866852 16.406007701531053)"><path d="M5.31 16.2 C4.16 20.84, 3.13 24.85, -1.07 33.58 M5.35 17.25 C3.75 19.93, 1.87 24.22, -0.16 32.33" stroke="#000000" stroke-width="1" fill="none"></path></g></g><mask></mask><g stroke-linecap="round" transform="translate(10 238.9384765625) rotate(0 92.5 24.5)"><path d="M-1.97 1.86 C47.9 1.58, 94.8 1.42, 186.51 -1.66 M0.83 -0.97 C49.93 -0.54, 98.13 -1.28, 185.62 -0.75 M183.54 1.41 C185.66 11.24, 183.95 26.91, 184.72 48.84 M184.75 -0.13 C185.15 10.04, 183.97 22.22, 184.67 48.03 M186.79 48.85 C114.71 50.17, 43.86 50.44, -0.88 49.12 M184.1 48.29 C129.32 48.5, 74.37 49.14, -0.8 49.83 M-0.97 47.64 C0.92 33.5, -0.2 19.3, 1.7 -1.02 M0.29 48.62 C-0.32 34.74, -0.98 20.55, 0 -0.7" stroke="#000000" stroke-width="1" fill="none"></path></g><g transform="translate(55.625 251.4384765625) rotate(0 46.875 12)"><text x="46.875" y="0" font-family="Cascadia, Segoe UI Emoji" font-size="20px" fill="#000000" text-anchor="middle" style="white-space: pre;" direction="ltr" dominant-baseline="text-before-edge">prompt_2</text></g><g stroke-linecap="round" transform="translate(10 324.0068359375) rotate(0 92.5 24.5)"><path d="M-1.97 1.86 C47.9 1.58, 94.8 1.42, 186.51 -1.66 M0.83 -0.97 C49.93 -0.54, 98.13 -1.28, 185.62 -0.75 M183.54 1.41 C185.66 11.24, 183.95 26.91, 184.72 48.84 M184.75 -0.13 C185.15 10.04, 183.97 22.22, 184.67 48.03 M186.79 48.85 C114.71 50.17, 43.86 50.44, -0.88 49.12 M184.1 48.29 C129.32 48.5, 74.37 49.14, -0.8 49.83 M-0.97 47.64 C0.92 33.5, -0.2 19.3, 1.7 -1.02 M0.29 48.62 C-0.32 34.74, -0.98 20.55, 0 -0.7" stroke="#000000" stroke-width="1" fill="none"></path></g><g transform="translate(55.625 336.5068359375) rotate(0 46.875 12)"><text x="46.875" y="0" font-family="Cascadia, Segoe UI Emoji" font-size="20px" fill="#000000" text-anchor="middle" style="white-space: pre;" direction="ltr" dominant-baseline="text-before-edge">prompt_3</text></g><g stroke-linecap="round"><g transform="translate(99.923828125 290.6748046875) rotate(0 -0.18201022417866852 16.406007701531053)"><path d="M0.42 -0.99 C0.94 8.68, 1.53 17.59, -1.22 33.8 M0.47 0.32 C-0.14 6.87, -0.96 15.37, -0.09 32.25" stroke="#000000" stroke-width="1" fill="none"></path></g><g transform="translate(99.923828125 290.6748046875) rotate(0 -0.18201022417866852 16.406007701531053)"><path d="M-5.68 16.52 C-3.56 21.01, -1.31 24.92, -1.07 33.58 M-5.64 17.57 C-4.6 20.27, -3.83 24.48, -0.16 32.33" stroke="#000000" stroke-width="1" fill="none"></path></g><g transform="translate(99.923828125 290.6748046875) rotate(0 -0.18201022417866852 16.406007701531053)"><path d="M5.31 16.2 C4.16 20.84, 3.13 24.85, -1.07 33.58 M5.35 17.25 C3.75 19.93, 1.87 24.22, -0.16 32.33" stroke="#000000" stroke-width="1" fill="none"></path></g></g><mask></mask><g stroke-linecap="round" transform="translate(10 473.1181640625) rotate(0 92.5 24.5)"><path d="M-1.97 1.86 C47.9 1.58, 94.8 1.42, 186.51 -1.66 M0.83 -0.97 C49.93 -0.54, 98.13 -1.28, 185.62 -0.75 M183.54 1.41 C185.66 11.24, 183.95 26.91, 184.72 48.84 M184.75 -0.13 C185.15 10.04, 183.97 22.22, 184.67 48.03 M186.79 48.85 C114.71 50.17, 43.86 50.44, -0.88 49.12 M184.1 48.29 C129.32 48.5, 74.37 49.14, -0.8 49.83 M-0.97 47.64 C0.92 33.5, -0.2 19.3, 1.7 -1.02 M0.29 48.62 C-0.32 34.74, -0.98 20.55, 0 -0.7" stroke="#000000" stroke-width="1" fill="none"></path></g><g transform="translate(55.625 485.6181640625) rotate(0 46.875 12)"><text x="46.875" y="0" font-family="Cascadia, Segoe UI Emoji" font-size="20px" fill="#000000" text-anchor="middle" style="white-space: pre;" direction="ltr" dominant-baseline="text-before-edge">prompt_2</text></g><g stroke-linecap="round" transform="translate(10 558.1865234375) rotate(0 92.5 24.5)"><path d="M-1.97 1.86 C47.9 1.58, 94.8 1.42, 186.51 -1.66 M0.83 -0.97 C49.93 -0.54, 98.13 -1.28, 185.62 -0.75 M183.54 1.41 C185.66 11.24, 183.95 26.91, 184.72 48.84 M184.75 -0.13 C185.15 10.04, 183.97 22.22, 184.67 48.03 M186.79 48.85 C114.71 50.17, 43.86 50.44, -0.88 49.12 M184.1 48.29 C129.32 48.5, 74.37 49.14, -0.8 49.83 M-0.97 47.64 C0.92 33.5, -0.2 19.3, 1.7 -1.02 M0.29 48.62 C-0.32 34.74, -0.98 20.55, 0 -0.7" stroke="#000000" stroke-width="1" fill="none"></path></g><g transform="translate(55.625 570.6865234375) rotate(0 46.875 12)"><text x="46.875" y="0" font-family="Cascadia, Segoe UI Emoji" font-size="20px" fill="#000000" text-anchor="middle" style="white-space: pre;" direction="ltr" dominant-baseline="text-before-edge">prompt_3</text></g><g stroke-linecap="round"><g transform="translate(99.923828125 524.8544921875) rotate(0 -0.18201022417866852 16.406007701531053)"><path d="M0.42 -0.99 C0.94 8.68, 1.53 17.59, -1.22 33.8 M0.47 0.32 C-0.14 6.87, -0.96 15.37, -0.09 32.25" stroke="#000000" stroke-width="1" fill="none"></path></g><g transform="translate(99.923828125 524.8544921875) rotate(0 -0.18201022417866852 16.406007701531053)"><path d="M-5.68 16.52 C-3.56 21.01, -1.31 24.92, -1.07 33.58 M-5.64 17.57 C-4.6 20.27, -3.83 24.48, -0.16 32.33" stroke="#000000" stroke-width="1" fill="none"></path></g><g transform="translate(99.923828125 524.8544921875) rotate(0 -0.18201022417866852 16.406007701531053)"><path d="M5.31 16.2 C4.16 20.84, 3.13 24.85, -1.07 33.58 M5.35 17.25 C3.75 19.93, 1.87 24.22, -0.16 32.33" stroke="#000000" stroke-width="1" fill="none"></path></g></g><mask></mask><g stroke-linecap="round"><g transform="translate(101.681640625 209.9296875) rotate(0 0.21430249176921734 13.511113803274924)"><path d="M-0.75 0.01 C-0.56 4.3, 0.82 22.23, 1.18 26.84 M1.05 -1.03 C1.06 3.93, 0.17 23.03, 0.1 28.06" stroke="#000000" stroke-width="1" fill="none"></path></g><g transform="translate(101.681640625 209.9296875) rotate(0 0.21430249176921734 13.511113803274924)"><path d="M-4.19 14.71 C-3.49 18.97, -1.23 23.49, 0.04 29.35 M-4.22 14.59 C-2.78 17.63, -1.91 21.07, -0.17 28.55" stroke="#000000" stroke-width="1" fill="none"></path></g><g transform="translate(101.681640625 209.9296875) rotate(0 0.21430249176921734 13.511113803274924)"><path d="M5.21 15 C3.06 19.12, 2.47 23.54, 0.04 29.35 M5.18 14.88 C4.41 17.88, 3.07 21.25, -0.17 28.55" stroke="#000000" stroke-width="1" fill="none"></path></g></g><mask></mask><g transform="translate(94.134765625 410.45703125) rotate(0 8.219993591308594 12.5)"><text x="0" y="0" font-family="Virgil, Segoe UI Emoji" font-size="20px" fill="#000000" text-anchor="start" style="white-space: pre;" direction="ltr" dominant-baseline="text-before-edge">...</text></g><g stroke-linecap="round"><g transform="translate(100.650390625 376.4140625) rotate(0 -1.7579608496278638 15.406062998566767)"><path d="M-0.21 0.7 C-0.58 5.73, -2.79 24.83, -3.31 29.55 M-1.78 0.02 C-1.66 5.27, -0.5 25.84, -0.93 30.79" stroke="#000000" stroke-width="1" fill="none"></path></g><g transform="translate(100.650390625 376.4140625) rotate(0 -1.7579608496278638 15.406062998566767)"><path d="M-5.16 15.76 C-5.74 18.79, -5.36 21.75, -0.42 31.9 M-5.5 15.91 C-4.73 20.27, -3.19 24.88, -1.37 30.92" stroke="#000000" stroke-width="1" fill="none"></path></g><g transform="translate(100.650390625 376.4140625) rotate(0 -1.7579608496278638 15.406062998566767)"><path d="M5.17 15.8 C2.41 18.81, 0.59 21.76, -0.42 31.9 M4.83 15.95 C2.74 20.39, 1.43 24.99, -1.37 30.92" stroke="#000000" stroke-width="1" fill="none"></path></g></g><mask></mask><g stroke-linecap="round"><g transform="translate(101.30956224051715 440.3984375) rotate(0 -0.6074922115569166 14.590488666668534)"><path d="M0.25 -1.1 C-0.07 4.04, -0.47 25.12, -1.01 30.29 M-1.07 0.93 C-1.54 5.77, -1.5 23.42, -1.41 28.48" stroke="#000000" stroke-width="1" fill="none"></path></g><g transform="translate(101.30956224051715 440.3984375) rotate(0 -0.6074922115569166 14.590488666668534)"><path d="M-7.97 15.83 C-3.96 18.67, -2.49 24.96, -2.78 27.63 M-6.28 14.99 C-5.32 19.56, -3.19 24.74, -1.12 28.7" stroke="#000000" stroke-width="1" fill="none"></path></g><g transform="translate(101.30956224051715 440.3984375) rotate(0 -0.6074922115569166 14.590488666668534)"><path d="M2.2 15.75 C2.38 18.64, 0 24.96, -2.78 27.63 M3.89 14.91 C1.27 19.59, -0.18 24.79, -1.12 28.7" stroke="#000000" stroke-width="1" fill="none"></path></g></g><mask></mask><g stroke-linecap="round"><g transform="translate(193.821322173206 66.1196194807464) rotate(0 10.261462646286304 -0.11725586595802895)"><path d="M0.15 0.35 C3.87 0.09, 18.09 -0.66, 21.76 -0.79 M-1.23 -0.52 C2.33 -0.67, 16.76 0.32, 20.51 0.56" stroke="#000000" stroke-width="1" fill="none"></path></g></g><mask></mask><g stroke-linecap="round"><g transform="translate(212.43648055720962 64.24170918740415) rotate(0 -0.5392456608589669 76.44111606241569)"><path d="M1.13 -0.69 C0.74 24.9, -1.7 126.73, -2.21 152.66 M0.26 1.57 C0.21 27.33, -0.13 128.32, -0.09 153.57" stroke="#000000" stroke-width="1" fill="none"></path></g></g><mask></mask><g stroke-linecap="round"><g transform="translate(209.7984637165622 216.50148344759668) rotate(0 -11.26618070494311 0.165217487482181)"><path d="M0.54 0.98 C-3.17 1.06, -18.24 -0.53, -22.03 -0.65 M-0.64 0.45 C-4.54 0.78, -19.32 0.34, -23.07 0.55" stroke="#000000" stroke-width="1" fill="none"></path></g></g><mask></mask><g stroke-linecap="round"><g transform="translate(193.821322173206 230.00320048092658) rotate(0 10.261462646286304 -0.11725586595804316)"><path d="M0.15 0.35 C3.87 0.09, 18.09 -0.66, 21.76 -0.79 M-1.23 -0.52 C2.33 -0.67, 16.76 0.32, 20.51 0.56" stroke="#000000" stroke-width="1" fill="none"></path></g></g><mask></mask><g stroke-linecap="round"><g transform="translate(212.43648055720973 228.1252901875843) rotate(0 -0.5392456608589669 76.44111606241566)"><path d="M1.13 -0.69 C0.74 24.9, -1.7 126.73, -2.21 152.66 M0.26 1.57 C0.21 27.33, -0.13 128.32, -0.09 153.57" stroke="#000000" stroke-width="1" fill="none"></path></g></g><mask></mask><g stroke-linecap="round"><g transform="translate(209.7984637165623 380.3850644477768) rotate(0 -11.26618070494311 0.1652174874821526)"><path d="M0.54 0.98 C-3.17 1.06, -18.24 -0.53, -22.03 -0.65 M-0.64 0.45 C-4.54 0.78, -19.32 0.34, -23.07 0.55" stroke="#000000" stroke-width="1" fill="none"></path></g></g><mask></mask><g stroke-linecap="round"><g transform="translate(193.821322173206 465.10085673092647) rotate(0 10.261462646286304 -0.11725586595804316)"><path d="M0.15 0.35 C3.87 0.09, 18.09 -0.66, 21.76 -0.79 M-1.23 -0.52 C2.33 -0.67, 16.76 0.32, 20.51 0.56" stroke="#000000" stroke-width="1" fill="none"></path></g></g><mask></mask><g stroke-linecap="round"><g transform="translate(212.43648055720973 463.22294643758426) rotate(0 -0.5392456608589669 76.44111606241563)"><path d="M1.13 -0.69 C0.74 24.9, -1.7 126.73, -2.21 152.66 M0.26 1.57 C0.21 27.33, -0.13 128.32, -0.09 153.57" stroke="#000000" stroke-width="1" fill="none"></path></g></g><mask></mask><g stroke-linecap="round"><g transform="translate(209.7984637165623 615.4827206977768) rotate(0 -11.26618070494311 0.1652174874821526)"><path d="M0.54 0.98 C-3.17 1.06, -18.24 -0.53, -22.03 -0.65 M-0.64 0.45 C-4.54 0.78, -19.32 0.34, -23.07 0.55" stroke="#000000" stroke-width="1" fill="none"></path></g></g><mask></mask><g transform="translate(217.248046875 10) rotate(0 99.609375 12)"><text x="0" y="0" font-family="Cascadia, Segoe UI Emoji" font-size="20px" fill="#000000" text-anchor="start" style="white-space: pre;" direction="ltr" dominant-baseline="text-before-edge">loop: statement_1</text></g><g transform="translate(236.53125 130.6171875) rotate(0 105.46875 12)"><text x="0" y="0" font-family="Cascadia, Segoe UI Emoji" font-size="20px" fill="#000000" text-anchor="start" style="white-space: pre;" direction="ltr" dominant-baseline="text-before-edge">- value_set_1: ...</text></g><g transform="translate(236.53125 290.48828125) rotate(0 105.46875 12)"><text x="0" y="0" font-family="Cascadia, Segoe UI Emoji" font-size="20px" fill="#000000" text-anchor="start" style="white-space: pre;" direction="ltr" dominant-baseline="text-before-edge">- value_set_2: ...</text></g><g transform="translate(236.53125 528.5546875) rotate(0 105.46875 12)"><text x="0" y="0" font-family="Cascadia, Segoe UI Emoji" font-size="20px" fill="#000000" text-anchor="start" style="white-space: pre;" direction="ltr" dominant-baseline="text-before-edge">- value_set_3: ...</text></g></svg>