<svg version="1.1" xmlns="http://www.w3.org/2000/svg" viewBox="0 0 788.765625 289.34765625" width="788.765625" height="auto">
  <!-- svg-source:excalidraw -->
  
  <defs>
    <style class="style-fonts">
      @font-face {
        font-family: "Virgil";
        src: url("https://file%2B.vscode-resource.vscode-cdn.net/Users/adithya/.vscode/extensions/pomdtr.excalidraw-editor-3.5.1/public//dist/excalidraw-assets/Virgil.woff2");
      }
      @font-face {
        font-family: "Cascadia";
        src: url("https://file%2B.vscode-resource.vscode-cdn.net/Users/adithya/.vscode/extensions/pomdtr.excalidraw-editor-3.5.1/public//dist/excalidraw-assets/Cascadia.woff2");
      }
    </style>
  </defs>
  <rect x="0" y="0" width="788.765625" height="289.34765625" fill="#ffffff"></rect><g stroke-linecap="round" transform="translate(302.115234375 10) rotate(0 92.5 24.5)"><path d="M-1.97 1.86 C47.9 1.58, 94.8 1.42, 186.51 -1.66 M0.83 -0.97 C49.93 -0.54, 98.13 -1.28, 185.62 -0.75 M183.54 1.41 C185.66 11.24, 183.95 26.91, 184.72 48.84 M184.75 -0.13 C185.15 10.04, 183.97 22.22, 184.67 48.03 M186.79 48.85 C114.71 50.17, 43.86 50.44, -0.88 49.12 M184.1 48.29 C129.32 48.5, 74.37 49.14, -0.8 49.83 M-0.97 47.64 C0.92 33.5, -0.2 19.3, 1.7 -1.02 M0.29 48.62 C-0.32 34.74, -0.98 20.55, 0 -0.7" stroke="#000000" stroke-width="1" fill="none"></path></g><g transform="translate(347.740234375 22.5) rotate(0 46.875 12)"><text x="46.875" y="0" font-family="Cascadia, Segoe UI Emoji" font-size="20px" fill="#000000" text-anchor="middle" style="white-space: pre;" direction="ltr" dominant-baseline="text-before-edge">prompt_1</text></g><g stroke-linecap="round" transform="translate(301.8828125 132.279296875) rotate(0 92.5 24.5)"><path d="M-1.97 1.86 C47.9 1.58, 94.8 1.42, 186.51 -1.66 M0.83 -0.97 C49.93 -0.54, 98.13 -1.28, 185.62 -0.75 M183.54 1.41 C185.66 11.24, 183.95 26.91, 184.72 48.84 M184.75 -0.13 C185.15 10.04, 183.97 22.22, 184.67 48.03 M186.79 48.85 C114.71 50.17, 43.86 50.44, -0.88 49.12 M184.1 48.29 C129.32 48.5, 74.37 49.14, -0.8 49.83 M-0.97 47.64 C0.92 33.5, -0.2 19.3, 1.7 -1.02 M0.29 48.62 C-0.32 34.74, -0.98 20.55, 0 -0.7" stroke="#000000" stroke-width="1" fill="none"></path></g><g transform="translate(347.5078125 144.779296875) rotate(0 46.875 12)"><text x="46.875" y="0" font-family="Cascadia, Segoe UI Emoji" font-size="20px" fill="#000000" text-anchor="middle" style="white-space: pre;" direction="ltr" dominant-baseline="text-before-edge">prompt_4</text></g><g stroke-linecap="round" transform="translate(301.8828125 230.34765625) rotate(0 92.5 24.5)"><path d="M-1.97 1.86 C47.9 1.58, 94.8 1.42, 186.51 -1.66 M0.83 -0.97 C49.93 -0.54, 98.13 -1.28, 185.62 -0.75 M183.54 1.41 C185.66 11.24, 183.95 26.91, 184.72 48.84 M184.75 -0.13 C185.15 10.04, 183.97 22.22, 184.67 48.03 M186.79 48.85 C114.71 50.17, 43.86 50.44, -0.88 49.12 M184.1 48.29 C129.32 48.5, 74.37 49.14, -0.8 49.83 M-0.97 47.64 C0.92 33.5, -0.2 19.3, 1.7 -1.02 M0.29 48.62 C-0.32 34.74, -0.98 20.55, 0 -0.7" stroke="#000000" stroke-width="1" fill="none"></path></g><g transform="translate(347.5078125 242.84765625) rotate(0 46.875 12)"><text x="46.875" y="0" font-family="Cascadia, Segoe UI Emoji" font-size="20px" fill="#000000" text-anchor="middle" style="white-space: pre;" direction="ltr" dominant-baseline="text-before-edge">prompt_5</text></g><g stroke-linecap="round"><g transform="translate(391.806640625 184.015625) rotate(0 -0.15559874022341091 22.906007701531053)"><path d="M0.42 -0.99 C1.01 12.56, 1.6 25.33, -1.22 46.8 M0.47 0.32 C-0.26 10, -1.08 21.62, -0.09 45.25" stroke="#000000" stroke-width="1" fill="none"></path></g><g transform="translate(391.806640625 184.015625) rotate(0 -0.15559874022341091 22.906007701531053)"><path d="M-7.92 23.25 C-5 29.56, -1.95 35.15, -1.31 46.9 M-7.87 24.56 C-6.38 28.51, -5.22 34.33, -0.17 45.35" stroke="#000000" stroke-width="1" fill="none"></path></g><g transform="translate(391.806640625 184.015625) rotate(0 -0.15559874022341091 22.906007701531053)"><path d="M7.52 22.86 C5.84 29.37, 4.29 35.07, -1.31 46.9 M7.57 24.18 C5.34 28.08, 2.79 33.99, -0.17 45.35" stroke="#000000" stroke-width="1" fill="none"></path></g></g><mask></mask><g stroke-linecap="round"><g transform="translate(307.7613220167316 60.109375) rotate(0 -91.733153890974 35.18649580935016)"><path d="M-1.98 0.08 C-73.24 27.07, -142.81 53.96, -182.99 71.03 M-0.15 -0.66 C-41.49 14.66, -84.76 30.8, -183.32 70.19" stroke="#000000" stroke-width="1" fill="none"></path></g><g transform="translate(307.7613220167316 60.109375) rotate(0 -91.733153890974 35.18649580935016)"><path d="M-162.86 50.36 C-170.78 58.48, -176.79 65.7, -183.17 71.59 M-161.03 49.61 C-165.19 54.3, -170.94 58.83, -183.49 70.74" stroke="#000000" stroke-width="1" fill="none"></path></g><g transform="translate(307.7613220167316 60.109375) rotate(0 -91.733153890974 35.18649580935016)"><path d="M-155.3 69.44 C-166.3 69.97, -175.3 69.65, -183.17 71.59 M-153.48 68.69 C-159.53 68.88, -167.04 68.96, -183.49 70.74" stroke="#000000" stroke-width="1" fill="none"></path></g></g><mask></mask><g stroke-linecap="round" transform="translate(10 132.279296875) rotate(0 92.5 24.5)"><path d="M-1.97 1.86 C47.9 1.58, 94.8 1.42, 186.51 -1.66 M0.83 -0.97 C49.93 -0.54, 98.13 -1.28, 185.62 -0.75 M183.54 1.41 C185.66 11.24, 183.95 26.91, 184.72 48.84 M184.75 -0.13 C185.15 10.04, 183.97 22.22, 184.67 48.03 M186.79 48.85 C114.71 50.17, 43.86 50.44, -0.88 49.12 M184.1 48.29 C129.32 48.5, 74.37 49.14, -0.8 49.83 M-0.97 47.64 C0.92 33.5, -0.2 19.3, 1.7 -1.02 M0.29 48.62 C-0.32 34.74, -0.98 20.55, 0 -0.7" stroke="#000000" stroke-width="1" fill="none"></path></g><g transform="translate(55.625 144.779296875) rotate(0 46.875 12)"><text x="46.875" y="0" font-family="Cascadia, Segoe UI Emoji" font-size="20px" fill="#000000" text-anchor="middle" style="white-space: pre;" direction="ltr" dominant-baseline="text-before-edge">prompt_2</text></g><g stroke-linecap="round" transform="translate(10 230.34765625) rotate(0 92.5 24.5)"><path d="M-1.97 1.86 C47.9 1.58, 94.8 1.42, 186.51 -1.66 M0.83 -0.97 C49.93 -0.54, 98.13 -1.28, 185.62 -0.75 M183.54 1.41 C185.66 11.24, 183.95 26.91, 184.72 48.84 M184.75 -0.13 C185.15 10.04, 183.97 22.22, 184.67 48.03 M186.79 48.85 C114.71 50.17, 43.86 50.44, -0.88 49.12 M184.1 48.29 C129.32 48.5, 74.37 49.14, -0.8 49.83 M-0.97 47.64 C0.92 33.5, -0.2 19.3, 1.7 -1.02 M0.29 48.62 C-0.32 34.74, -0.98 20.55, 0 -0.7" stroke="#000000" stroke-width="1" fill="none"></path></g><g transform="translate(55.625 242.84765625) rotate(0 46.875 12)"><text x="46.875" y="0" font-family="Cascadia, Segoe UI Emoji" font-size="20px" fill="#000000" text-anchor="middle" style="white-space: pre;" direction="ltr" dominant-baseline="text-before-edge">prompt_3</text></g><g stroke-linecap="round"><g transform="translate(105.30078125 182.35546875) rotate(0 0.2845521516316296 22.75545891514048)"><path d="M-0.47 1.74 C-1.32 14.59, 0.38 31.45, 1.27 46.1 M-0.64 -0.59 C0.88 13.43, 0.51 28.62, -0.65 45.57" stroke="#000000" stroke-width="1" fill="none"></path></g><g transform="translate(105.30078125 182.35546875) rotate(0 0.2845521516316296 22.75545891514048)"><path d="M-7.87 25.12 C-6.68 30.22, -2.81 39.29, 0.62 45.28 M-8.03 22.79 C-4.66 29.57, -3.03 37.56, -1.31 44.75" stroke="#000000" stroke-width="1" fill="none"></path></g><g transform="translate(105.30078125 182.35546875) rotate(0 0.2845521516316296 22.75545891514048)"><path d="M7.98 25.98 C4.07 30.72, 2.84 39.52, 0.62 45.28 M7.81 23.65 C6.46 30.24, 3.37 37.98, -1.31 44.75" stroke="#000000" stroke-width="1" fill="none"></path></g></g><mask></mask><g stroke-linecap="round" transform="translate(593.765625 132.279296875) rotate(0 92.5 24.5)"><path d="M-1.97 1.86 C47.9 1.58, 94.8 1.42, 186.51 -1.66 M0.83 -0.97 C49.93 -0.54, 98.13 -1.28, 185.62 -0.75 M183.54 1.41 C185.66 11.24, 183.95 26.91, 184.72 48.84 M184.75 -0.13 C185.15 10.04, 183.97 22.22, 184.67 48.03 M186.79 48.85 C114.71 50.17, 43.86 50.44, -0.88 49.12 M184.1 48.29 C129.32 48.5, 74.37 49.14, -0.8 49.83 M-0.97 47.64 C0.92 33.5, -0.2 19.3, 1.7 -1.02 M0.29 48.62 C-0.32 34.74, -0.98 20.55, 0 -0.7" stroke="#000000" stroke-width="1" fill="none"></path></g><g transform="translate(639.390625 144.779296875) rotate(0 46.875 12)"><text x="46.875" y="0" font-family="Cascadia, Segoe UI Emoji" font-size="20px" fill="#000000" text-anchor="middle" style="white-space: pre;" direction="ltr" dominant-baseline="text-before-edge">prompt_6</text></g><g stroke-linecap="round" transform="translate(593.765625 230.34765625) rotate(0 92.5 24.5)"><path d="M-1.97 1.86 C47.9 1.58, 94.8 1.42, 186.51 -1.66 M0.83 -0.97 C49.93 -0.54, 98.13 -1.28, 185.62 -0.75 M183.54 1.41 C185.66 11.24, 183.95 26.91, 184.72 48.84 M184.75 -0.13 C185.15 10.04, 183.97 22.22, 184.67 48.03 M186.79 48.85 C114.71 50.17, 43.86 50.44, -0.88 49.12 M184.1 48.29 C129.32 48.5, 74.37 49.14, -0.8 49.83 M-0.97 47.64 C0.92 33.5, -0.2 19.3, 1.7 -1.02 M0.29 48.62 C-0.32 34.74, -0.98 20.55, 0 -0.7" stroke="#000000" stroke-width="1" fill="none"></path></g><g transform="translate(639.390625 242.84765625) rotate(0 46.875 12)"><text x="46.875" y="0" font-family="Cascadia, Segoe UI Emoji" font-size="20px" fill="#000000" text-anchor="middle" style="white-space: pre;" direction="ltr" dominant-baseline="text-before-edge">prompt_7</text></g><g stroke-linecap="round"><g transform="translate(689.06640625 182.35546875) rotate(0 0.28455215163165803 22.75545891514048)"><path d="M-0.47 1.74 C-1.32 14.59, 0.38 31.45, 1.27 46.1 M-0.64 -0.59 C0.88 13.43, 0.51 28.62, -0.65 45.57" stroke="#000000" stroke-width="1" fill="none"></path></g><g transform="translate(689.06640625 182.35546875) rotate(0 0.28455215163165803 22.75545891514048)"><path d="M-7.87 25.12 C-6.68 30.22, -2.81 39.29, 0.62 45.28 M-8.03 22.79 C-4.66 29.57, -3.03 37.56, -1.31 44.75" stroke="#000000" stroke-width="1" fill="none"></path></g><g transform="translate(689.06640625 182.35546875) rotate(0 0.28455215163165803 22.75545891514048)"><path d="M7.98 25.98 C4.07 30.72, 2.84 39.52, 0.62 45.28 M7.81 23.65 C6.46 30.24, 3.37 37.98, -1.31 44.75" stroke="#000000" stroke-width="1" fill="none"></path></g></g><mask></mask><g stroke-linecap="round"><g transform="translate(492.3828125 57.046875) rotate(0 77.67248392025476 36.26978816539051)"><path d="M0.72 -0.55 C26.83 11.81, 130.01 60.8, 155.7 73.09 M-0.35 1.77 C25.75 13.89, 129.47 59.81, 155.22 71.4" stroke="#000000" stroke-width="1" fill="none"></path></g><g transform="translate(492.3828125 57.046875) rotate(0 77.67248392025476 36.26978816539051)"><path d="M124.37 70.76 C133.35 69.68, 140.19 68.45, 155.71 73.35 M124.75 68.98 C133.9 70.55, 143.62 71.07, 155.35 71.67" stroke="#000000" stroke-width="1" fill="none"></path></g><g transform="translate(492.3828125 57.046875) rotate(0 77.67248392025476 36.26978816539051)"><path d="M132.73 52.02 C139.67 55.19, 144.63 58.16, 155.71 73.35 M133.11 50.24 C139.68 57.66, 146.79 64.03, 155.35 71.67" stroke="#000000" stroke-width="1" fill="none"></path></g></g><mask></mask><g stroke-linecap="round"><g transform="translate(395.5478349528978 60.4140625) rotate(0 0.25354270869792117 35.24937188291457)"><path d="M-1.12 -0.06 C-0.7 11.76, 1.27 59.81, 1.63 71.63 M0.49 -1.14 C0.79 10.28, -0.07 57.7, 0.4 69.92" stroke="#000000" stroke-width="1" fill="none"></path></g><g transform="translate(395.5478349528978 60.4140625) rotate(0 0.25354270869792117 35.24937188291457)"><path d="M-10.16 40.89 C-6.26 46.29, -5.21 53.66, 0.59 71.86 M-10.51 42.17 C-6.99 50.26, -4.39 56.41, 0.2 70.36" stroke="#000000" stroke-width="1" fill="none"></path></g><g transform="translate(395.5478349528978 60.4140625) rotate(0 0.25354270869792117 35.24937188291457)"><path d="M10.36 40.75 C9.65 45.98, 6.1 53.39, 0.59 71.86 M10.01 42.03 C8.08 50.13, 5.24 56.32, 0.2 70.36" stroke="#000000" stroke-width="1" fill="none"></path></g></g><mask></mask><g transform="translate(105.28515625 73.16015625) rotate(0 35.15625 12)"><text x="0" y="0" font-family="Cascadia, Segoe UI Emoji" font-size="20px" fill="#000000" text-anchor="start" style="white-space: pre;" direction="ltr" dominant-baseline="text-before-edge">case_1</text></g><g transform="translate(316.046875 73.16015625) rotate(0 35.15625 12)"><text x="0" y="0" font-family="Cascadia, Segoe UI Emoji" font-size="20px" fill="#000000" text-anchor="start" style="white-space: pre;" direction="ltr" dominant-baseline="text-before-edge">case_2</text></g><g transform="translate(600.26171875 73.16015625) rotate(0 41.015625 12)"><text x="0" y="0" font-family="Cascadia, Segoe UI Emoji" font-size="20px" fill="#000000" text-anchor="start" style="white-space: pre;" direction="ltr" dominant-baseline="text-before-edge">default</text></g><g transform="translate(12.71875 21.52734375) rotate(0 123.046875 12)"><text x="0" y="0" font-family="Cascadia, Segoe UI Emoji" font-size="20px" fill="#000000" text-anchor="start" style="white-space: pre;" direction="ltr" dominant-baseline="text-before-edge">switch: conditional_2</text></g></svg>