<svg version="1.1" xmlns="http://www.w3.org/2000/svg" viewBox="0 0 440.607421875 482.953125" width="440.607421875" height="482.953125">
  <!-- svg-source:excalidraw -->
  
  <defs>
    <style class="style-fonts">
      @font-face {
        font-family: "Virgil";
        src: url("https://file%2B.vscode-resource.vscode-cdn.net/Users/adithya/.vscode/extensions/pomdtr.excalidraw-editor-3.5.1/public//dist/excalidraw-assets/Virgil.woff2");
      }
      @font-face {
        font-family: "Cascadia";
        src: url("https://file%2B.vscode-resource.vscode-cdn.net/Users/adithya/.vscode/extensions/pomdtr.excalidraw-editor-3.5.1/public//dist/excalidraw-assets/Cascadia.woff2");
      }
    </style>
  </defs>
  <rect x="0" y="0" width="440.607421875" height="482.953125" fill="#ffffff"></rect><g stroke-linecap="round" transform="translate(10.0234375 10) rotate(0 92.5 24.5)"><path d="M-1.97 1.86 C47.9 1.58, 94.8 1.42, 186.51 -1.66 M0.83 -0.97 C49.93 -0.54, 98.13 -1.28, 185.62 -0.75 M183.54 1.41 C185.66 11.24, 183.95 26.91, 184.72 48.84 M184.75 -0.13 C185.15 10.04, 183.97 22.22, 184.67 48.03 M186.79 48.85 C114.71 50.17, 43.86 50.44, -0.88 49.12 M184.1 48.29 C129.32 48.5, 74.37 49.14, -0.8 49.83 M-0.97 47.64 C0.92 33.5, -0.2 19.3, 1.7 -1.02 M0.29 48.62 C-0.32 34.74, -0.98 20.55, 0 -0.7" stroke="#000000" stroke-width="1" fill="none"></path></g><g transform="translate(55.6484375 22.5) rotate(0 46.875 12)"><text x="46.875" y="0" font-family="Cascadia, Segoe UI Emoji" font-size="20px" fill="#000000" text-anchor="middle" style="white-space: pre;" direction="ltr" dominant-baseline="text-before-edge">prompt_1</text></g><g stroke-linecap="round" transform="translate(153.107421875 129.748046875) rotate(0 92.5 24.5)"><path d="M-1.97 1.86 C47.9 1.58, 94.8 1.42, 186.51 -1.66 M0.83 -0.97 C49.93 -0.54, 98.13 -1.28, 185.62 -0.75 M183.54 1.41 C185.66 11.24, 183.95 26.91, 184.72 48.84 M184.75 -0.13 C185.15 10.04, 183.97 22.22, 184.67 48.03 M186.79 48.85 C114.71 50.17, 43.86 50.44, -0.88 49.12 M184.1 48.29 C129.32 48.5, 74.37 49.14, -0.8 49.83 M-0.97 47.64 C0.92 33.5, -0.2 19.3, 1.7 -1.02 M0.29 48.62 C-0.32 34.74, -0.98 20.55, 0 -0.7" stroke="#000000" stroke-width="1" fill="none"></path></g><g transform="translate(198.732421875 142.248046875) rotate(0 46.875 12)"><text x="46.875" y="0" font-family="Cascadia, Segoe UI Emoji" font-size="20px" fill="#000000" text-anchor="middle" style="white-space: pre;" direction="ltr" dominant-baseline="text-before-edge">prompt_2</text></g><g stroke-linecap="round" transform="translate(153.107421875 227.81640625) rotate(0 92.5 24.5)"><path d="M-1.97 1.86 C47.9 1.58, 94.8 1.42, 186.51 -1.66 M0.83 -0.97 C49.93 -0.54, 98.13 -1.28, 185.62 -0.75 M183.54 1.41 C185.66 11.24, 183.95 26.91, 184.72 48.84 M184.75 -0.13 C185.15 10.04, 183.97 22.22, 184.67 48.03 M186.79 48.85 C114.71 50.17, 43.86 50.44, -0.88 49.12 M184.1 48.29 C129.32 48.5, 74.37 49.14, -0.8 49.83 M-0.97 47.64 C0.92 33.5, -0.2 19.3, 1.7 -1.02 M0.29 48.62 C-0.32 34.74, -0.98 20.55, 0 -0.7" stroke="#000000" stroke-width="1" fill="none"></path></g><g transform="translate(198.732421875 240.31640625) rotate(0 46.875 12)"><text x="46.875" y="0" font-family="Cascadia, Segoe UI Emoji" font-size="20px" fill="#000000" text-anchor="middle" style="white-space: pre;" direction="ltr" dominant-baseline="text-before-edge">prompt_3</text></g><g stroke-linecap="round" transform="translate(10 325.884765625) rotate(0 92.5 24.5)"><path d="M-1.97 1.86 C47.9 1.58, 94.8 1.42, 186.51 -1.66 M0.83 -0.97 C49.93 -0.54, 98.13 -1.28, 185.62 -0.75 M183.54 1.41 C185.66 11.24, 183.95 26.91, 184.72 48.84 M184.75 -0.13 C185.15 10.04, 183.97 22.22, 184.67 48.03 M186.79 48.85 C114.71 50.17, 43.86 50.44, -0.88 49.12 M184.1 48.29 C129.32 48.5, 74.37 49.14, -0.8 49.83 M-0.97 47.64 C0.92 33.5, -0.2 19.3, 1.7 -1.02 M0.29 48.62 C-0.32 34.74, -0.98 20.55, 0 -0.7" stroke="#000000" stroke-width="1" fill="none"></path></g><g transform="translate(55.625 338.384765625) rotate(0 46.875 12)"><text x="46.875" y="0" font-family="Cascadia, Segoe UI Emoji" font-size="20px" fill="#000000" text-anchor="middle" style="white-space: pre;" direction="ltr" dominant-baseline="text-before-edge">prompt_4</text></g><g stroke-linecap="round" transform="translate(10 423.953125) rotate(0 92.5 24.5)"><path d="M-1.97 1.86 C47.9 1.58, 94.8 1.42, 186.51 -1.66 M0.83 -0.97 C49.93 -0.54, 98.13 -1.28, 185.62 -0.75 M183.54 1.41 C185.66 11.24, 183.95 26.91, 184.72 48.84 M184.75 -0.13 C185.15 10.04, 183.97 22.22, 184.67 48.03 M186.79 48.85 C114.71 50.17, 43.86 50.44, -0.88 49.12 M184.1 48.29 C129.32 48.5, 74.37 49.14, -0.8 49.83 M-0.97 47.64 C0.92 33.5, -0.2 19.3, 1.7 -1.02 M0.29 48.62 C-0.32 34.74, -0.98 20.55, 0 -0.7" stroke="#000000" stroke-width="1" fill="none"></path></g><g transform="translate(55.625 436.453125) rotate(0 46.875 12)"><text x="46.875" y="0" font-family="Cascadia, Segoe UI Emoji" font-size="20px" fill="#000000" text-anchor="middle" style="white-space: pre;" direction="ltr" dominant-baseline="text-before-edge">prompt_5</text></g><g stroke-linecap="round"><g transform="translate(99.88282197962349 60) rotate(0 -0.2028046634503653 132.09098135974955)"><path d="M-1.27 -0.85 C-1.71 86.6, -2.21 171.23, 1.18 265.03 M-0.19 -0.58 C0.92 86.72, 0.93 172.42, 0.01 264.7" stroke="#000000" stroke-width="1" fill="none"></path></g><g transform="translate(99.88282197962349 60) rotate(0 -0.2028046634503653 132.09098135974955)"><path d="M-11.65 235.37 C-7.61 247.03, -5 255.09, 1.52 264.89 M-10.3 235.71 C-7.19 246.03, -3.89 254.25, 0.04 264.47" stroke="#000000" stroke-width="1" fill="none"></path></g><g transform="translate(99.88282197962349 60) rotate(0 -0.2028046634503653 132.09098135974955)"><path d="M8.87 235.51 C6.29 247.05, 2.28 255.06, 1.52 264.89 M10.22 235.85 C6.63 245.95, 3.23 254.12, 0.04 264.47" stroke="#000000" stroke-width="1" fill="none"></path></g></g><mask></mask><g stroke-linecap="round"><g transform="translate(99.923828125 377.62109375) rotate(0 -0.15559874022341091 22.906007701531053)"><path d="M0.42 -0.99 C1.01 12.56, 1.6 25.33, -1.22 46.8 M0.47 0.32 C-0.26 10, -1.08 21.62, -0.09 45.25" stroke="#000000" stroke-width="1" fill="none"></path></g><g transform="translate(99.923828125 377.62109375) rotate(0 -0.15559874022341091 22.906007701531053)"><path d="M-7.92 23.25 C-5 29.56, -1.95 35.15, -1.31 46.9 M-7.87 24.56 C-6.38 28.51, -5.22 34.33, -0.17 45.35" stroke="#000000" stroke-width="1" fill="none"></path></g><g transform="translate(99.923828125 377.62109375) rotate(0 -0.15559874022341091 22.906007701531053)"><path d="M7.52 22.86 C5.84 29.37, 4.29 35.07, -1.31 46.9 M7.57 24.18 C5.34 28.08, 2.79 33.99, -0.17 45.35" stroke="#000000" stroke-width="1" fill="none"></path></g></g><mask></mask><g stroke-linecap="round"><g transform="translate(133.2664418443154 61.97265625) rotate(0 46.006679927764424 33.75876143435016)"><path d="M-1.98 0.08 C36.3 27.32, 76.29 53.07, 93.99 68.17 M-0.15 -0.66 C23.16 15.67, 44.55 31.14, 93.67 67.33" stroke="#000000" stroke-width="1" fill="none"></path></g><g transform="translate(133.2664418443154 61.97265625) rotate(0 46.006679927764424 33.75876143435016)"><path d="M62.9 59 C75.18 62.83, 89.44 65.5, 93.81 68.73 M64.72 58.25 C72.45 60.56, 78.66 62.41, 93.49 67.89" stroke="#000000" stroke-width="1" fill="none"></path></g><g transform="translate(133.2664418443154 61.97265625) rotate(0 46.006679927764424 33.75876143435016)"><path d="M75.05 42.46 C82.6 52.77, 92.05 61.98, 93.81 68.73 M76.87 41.72 C81.88 47.81, 85.25 53.52, 93.49 67.89" stroke="#000000" stroke-width="1" fill="none"></path></g></g><mask></mask><g stroke-linecap="round"><g transform="translate(209.642578125 279.62109375) rotate(0 -39.37451180838059 23.81271354270558)"><path d="M1.7 1.21 C-29.98 15.75, -59.25 32.89, -80 47.98 M0.13 -0.36 C-30.79 17.35, -63.28 35.46, -80.45 46.06" stroke="#000000" stroke-width="1" fill="none"></path></g><g transform="translate(209.642578125 279.62109375) rotate(0 -39.37451180838059 23.81271354270558)"><path d="M-59.74 24.06 C-68.74 29.49, -75.4 38.01, -79.01 47.02 M-61.32 22.49 C-68.23 31.17, -76.9 40.19, -79.47 45.1" stroke="#000000" stroke-width="1" fill="none"></path></g><g transform="translate(209.642578125 279.62109375) rotate(0 -39.37451180838059 23.81271354270558)"><path d="M-49.27 41.7 C-62.01 40.83, -72.46 42.95, -79.01 47.02 M-50.85 40.14 C-61.61 42.07, -74.27 44.37, -79.47 45.1" stroke="#000000" stroke-width="1" fill="none"></path></g></g><mask></mask><g stroke-linecap="round"><g transform="translate(248.408203125 179.82421875) rotate(0 0.28455215163165803 22.75545891514048)"><path d="M-0.47 1.74 C-1.32 14.59, 0.38 31.45, 1.27 46.1 M-0.64 -0.59 C0.88 13.43, 0.51 28.62, -0.65 45.57" stroke="#000000" stroke-width="1" fill="none"></path></g><g transform="translate(248.408203125 179.82421875) rotate(0 0.28455215163165803 22.75545891514048)"><path d="M-7.87 25.12 C-6.68 30.22, -2.81 39.29, 0.62 45.28 M-8.03 22.79 C-4.66 29.57, -3.03 37.56, -1.31 44.75" stroke="#000000" stroke-width="1" fill="none"></path></g><g transform="translate(248.408203125 179.82421875) rotate(0 0.28455215163165803 22.75545891514048)"><path d="M7.98 25.98 C4.07 30.72, 2.84 39.52, 0.62 45.28 M7.81 23.65 C6.46 30.24, 3.37 37.98, -1.31 44.75" stroke="#000000" stroke-width="1" fill="none"></path></g></g><mask></mask><g transform="translate(207.951171875 74.23828125) rotate(0 111.328125 12)"><text x="0" y="0" font-family="Cascadia, Segoe UI Emoji" font-size="20px" fill="#000000" text-anchor="start" style="white-space: pre;" direction="ltr" dominant-baseline="text-before-edge">when: conditional_1</text></g></svg>