<svg width="152" height="75" viewBox="0 0 152 75" fill="none" xmlns="http://www.w3.org/2000/svg">
<rect width="152" height="75" rx="10" fill="#262626"/>
<path d="M20.3 56V21.1H35.3C38.5333 21.1 41.0333 22.05 42.8 23.95C44.5667 25.85 45.45 28.4 45.45 31.6C45.45 34.8 44.5667 37.35 42.8 39.25C41.0333 41.15 38.5333 42.1 35.3 42.1H25.95V56H20.3ZM25.95 37.15H34.95C36.3833 37.15 37.5 36.7833 38.3 36.05C39.1 35.2833 39.5 34.2 39.5 32.8V30.4C39.5 29 39.1 27.9333 38.3 27.2C37.5 26.4333 36.3833 26.05 34.95 26.05H25.95V37.15ZM63.4641 21.1H75.8141C78.0474 21.1 80.0641 21.4667 81.8641 22.2C83.6974 22.9333 85.2474 24.0333 86.5141 25.5C87.8141 26.9333 88.8141 28.75 89.5141 30.95C90.2141 33.1167 90.5641 35.65 90.5641 38.55C90.5641 41.45 90.2141 44 89.5141 46.2C88.8141 48.3667 87.8141 50.1833 86.5141 51.65C85.2474 53.0833 83.6974 54.1667 81.8641 54.9C80.0641 55.6333 78.0474 56 75.8141 56H63.4641V21.1ZM75.8141 51C78.4141 51 80.5141 50.1833 82.1141 48.55C83.7141 46.9167 84.5141 44.5167 84.5141 41.35V35.75C84.5141 32.5833 83.7141 30.1833 82.1141 28.55C80.5141 26.9167 78.4141 26.1 75.8141 26.1H69.1141V51H75.8141ZM136.011 56H129.361L120.911 42.1H120.761L112.411 56H106.161L117.461 38.15L106.561 21.1H113.211L121.161 34.1H121.261L129.311 21.1H135.561L124.561 38.1L136.011 56Z" fill="#E5E5E5"/>
</svg>
